<mxfile host="app.diagrams.net" modified="2022-11-24T14:22:39.213Z" agent="5.0 (iPhone; CPU iPhone OS 16_1 like Mac OS X) AppleWebKit/605.1.15 (KHTML, like Gecko) EdgiOS/107.0.1418.42 Version/16.0 Mobile/15E148 Safari/604.1" etag="KqewtU3q12DK8pLUH5dE" version="20.6.0" type="github">
  <diagram id="Y8VD3bbsFug7fa-G-Edv" name="Page-1">
    <mxGraphModel dx="780" dy="1089" grid="0" gridSize="10" guides="1" tooltips="1" connect="1" arrows="1" fold="1" page="0" pageScale="1" pageWidth="850" pageHeight="1100" math="0" shadow="0">
      <root>
        <mxCell id="0" />
        <mxCell id="1" parent="0" />
        <mxCell id="ojhhG3WkHg60o16cQQcv-1" value="Ignition MTConnect Project" style="rounded=0;whiteSpace=wrap;html=1;align=left;verticalAlign=top;" parent="1" vertex="1">
          <mxGeometry x="-152" y="133" width="841" height="1073" as="geometry" />
        </mxCell>
        <mxCell id="ojhhG3WkHg60o16cQQcv-8" value="Scripts" style="rounded=0;whiteSpace=wrap;html=1;align=left;verticalAlign=top;" parent="1" vertex="1">
          <mxGeometry x="-99" y="229" width="645" height="595" as="geometry" />
        </mxCell>
        <mxCell id="cE-XZR6qFVG_7nGPDlGH-24" value="Edge device (MR IIoT)" style="rounded=0;whiteSpace=wrap;html=1;align=left;verticalAlign=top;" parent="1" vertex="1">
          <mxGeometry x="-118" y="-101" width="702" height="226" as="geometry" />
        </mxCell>
        <mxCell id="cE-XZR6qFVG_7nGPDlGH-3" value="Application" style="rounded=0;whiteSpace=wrap;html=1;align=left;verticalAlign=top;" parent="1" vertex="1">
          <mxGeometry x="-83" y="365" width="617" height="226" as="geometry" />
        </mxCell>
        <mxCell id="cE-XZR6qFVG_7nGPDlGH-2" value="Services" style="rounded=0;whiteSpace=wrap;html=1;align=left;verticalAlign=top;" parent="1" vertex="1">
          <mxGeometry x="-83" y="604" width="574" height="164" as="geometry" />
        </mxCell>
        <mxCell id="c3xup34KW6eh66UdVi6g-12" value="Agent" style="swimlane;fontStyle=1;align=center;verticalAlign=top;childLayout=stackLayout;horizontal=1;startSize=26;horizontalStack=0;resizeParent=1;resizeParentMax=0;resizeLast=0;collapsible=1;marginBottom=0;fontSize=16;fillColor=#21C0A5;strokeColor=#006658;fontColor=#5C5C5C;rounded=0;" parent="1" vertex="1">
          <mxGeometry x="-67" y="434" width="160" height="122" as="geometry" />
        </mxCell>
        <mxCell id="c3xup34KW6eh66UdVi6g-13" value="host: string&#xa;port: string" style="text;strokeColor=none;fillColor=none;align=left;verticalAlign=top;spacingLeft=4;spacingRight=4;overflow=hidden;rotatable=0;points=[[0,0.5],[1,0.5]];portConstraint=eastwest;fontSize=16;fontColor=#5C5C5C;rounded=0;" parent="c3xup34KW6eh66UdVi6g-12" vertex="1">
          <mxGeometry y="26" width="160" height="62" as="geometry" />
        </mxCell>
        <mxCell id="c3xup34KW6eh66UdVi6g-14" value="" style="line;strokeWidth=1;fillColor=none;align=left;verticalAlign=middle;spacingTop=-1;spacingLeft=3;spacingRight=3;rotatable=0;labelPosition=right;points=[];portConstraint=eastwest;fontSize=16;strokeColor=#006658;fontColor=#5C5C5C;rounded=0;" parent="c3xup34KW6eh66UdVi6g-12" vertex="1">
          <mxGeometry y="88" width="160" height="8" as="geometry" />
        </mxCell>
        <mxCell id="c3xup34KW6eh66UdVi6g-15" value="+ method(type): type" style="text;strokeColor=none;fillColor=none;align=left;verticalAlign=top;spacingLeft=4;spacingRight=4;overflow=hidden;rotatable=0;points=[[0,0.5],[1,0.5]];portConstraint=eastwest;fontSize=16;fontColor=#5C5C5C;rounded=0;" parent="c3xup34KW6eh66UdVi6g-12" vertex="1">
          <mxGeometry y="96" width="160" height="26" as="geometry" />
        </mxCell>
        <mxCell id="c3xup34KW6eh66UdVi6g-21" value="BaseClient" style="swimlane;fontStyle=1;align=center;verticalAlign=top;childLayout=stackLayout;horizontal=1;startSize=26;horizontalStack=0;resizeParent=1;resizeParentMax=0;resizeLast=0;collapsible=1;marginBottom=0;fontSize=16;fillColor=#21C0A5;strokeColor=#006658;fontColor=#5C5C5C;rounded=0;" parent="1" vertex="1">
          <mxGeometry x="106" y="437" width="218" height="134" as="geometry" />
        </mxCell>
        <mxCell id="c3xup34KW6eh66UdVi6g-22" value="instance: 64-bit uint&#xa;nextSequence: 32-bit uint&#xa;name: string" style="text;strokeColor=none;fillColor=none;align=left;verticalAlign=top;spacingLeft=4;spacingRight=4;overflow=hidden;rotatable=0;points=[[0,0.5],[1,0.5]];portConstraint=eastwest;fontSize=16;fontColor=#5C5C5C;rounded=0;" parent="c3xup34KW6eh66UdVi6g-21" vertex="1">
          <mxGeometry y="26" width="218" height="74" as="geometry" />
        </mxCell>
        <mxCell id="c3xup34KW6eh66UdVi6g-23" value="" style="line;strokeWidth=1;fillColor=none;align=left;verticalAlign=middle;spacingTop=-1;spacingLeft=3;spacingRight=3;rotatable=0;labelPosition=right;points=[];portConstraint=eastwest;fontSize=16;strokeColor=#006658;fontColor=#5C5C5C;rounded=0;" parent="c3xup34KW6eh66UdVi6g-21" vertex="1">
          <mxGeometry y="100" width="218" height="8" as="geometry" />
        </mxCell>
        <mxCell id="c3xup34KW6eh66UdVi6g-24" value="+ method(type): type" style="text;strokeColor=none;fillColor=none;align=left;verticalAlign=top;spacingLeft=4;spacingRight=4;overflow=hidden;rotatable=0;points=[[0,0.5],[1,0.5]];portConstraint=eastwest;fontSize=16;fontColor=#5C5C5C;rounded=0;" parent="c3xup34KW6eh66UdVi6g-21" vertex="1">
          <mxGeometry y="108" width="218" height="26" as="geometry" />
        </mxCell>
        <mxCell id="c3xup34KW6eh66UdVi6g-25" value="DatabaseService" style="swimlane;fontStyle=1;align=center;verticalAlign=top;childLayout=stackLayout;horizontal=1;startSize=26;horizontalStack=0;resizeParent=1;resizeParentMax=0;resizeLast=0;collapsible=1;marginBottom=0;fontSize=16;fillColor=#21C0A5;strokeColor=#006658;fontColor=#5C5C5C;rounded=0;" parent="1" vertex="1">
          <mxGeometry x="298" y="639" width="160" height="82" as="geometry" />
        </mxCell>
        <mxCell id="c3xup34KW6eh66UdVi6g-26" value="+ field: type" style="text;strokeColor=none;fillColor=none;align=left;verticalAlign=top;spacingLeft=4;spacingRight=4;overflow=hidden;rotatable=0;points=[[0,0.5],[1,0.5]];portConstraint=eastwest;fontSize=16;fontColor=#5C5C5C;rounded=0;" parent="c3xup34KW6eh66UdVi6g-25" vertex="1">
          <mxGeometry y="26" width="160" height="22" as="geometry" />
        </mxCell>
        <mxCell id="c3xup34KW6eh66UdVi6g-27" value="" style="line;strokeWidth=1;fillColor=none;align=left;verticalAlign=middle;spacingTop=-1;spacingLeft=3;spacingRight=3;rotatable=0;labelPosition=right;points=[];portConstraint=eastwest;fontSize=16;strokeColor=#006658;fontColor=#5C5C5C;rounded=0;" parent="c3xup34KW6eh66UdVi6g-25" vertex="1">
          <mxGeometry y="48" width="160" height="8" as="geometry" />
        </mxCell>
        <mxCell id="c3xup34KW6eh66UdVi6g-28" value="+ method(type): type" style="text;strokeColor=none;fillColor=none;align=left;verticalAlign=top;spacingLeft=4;spacingRight=4;overflow=hidden;rotatable=0;points=[[0,0.5],[1,0.5]];portConstraint=eastwest;fontSize=16;fontColor=#5C5C5C;rounded=0;" parent="c3xup34KW6eh66UdVi6g-25" vertex="1">
          <mxGeometry y="56" width="160" height="26" as="geometry" />
        </mxCell>
        <mxCell id="c3xup34KW6eh66UdVi6g-29" value="GatewayService" style="swimlane;fontStyle=1;align=center;verticalAlign=top;childLayout=stackLayout;horizontal=1;startSize=26;horizontalStack=0;resizeParent=1;resizeParentMax=0;resizeLast=0;collapsible=1;marginBottom=0;fontSize=16;fillColor=#21C0A5;strokeColor=#006658;fontColor=#5C5C5C;rounded=0;" parent="1" vertex="1">
          <mxGeometry x="135" y="639" width="160" height="80" as="geometry" />
        </mxCell>
        <mxCell id="c3xup34KW6eh66UdVi6g-30" value="+ field: type" style="text;strokeColor=none;fillColor=none;align=left;verticalAlign=top;spacingLeft=4;spacingRight=4;overflow=hidden;rotatable=0;points=[[0,0.5],[1,0.5]];portConstraint=eastwest;fontSize=16;fontColor=#5C5C5C;rounded=0;" parent="c3xup34KW6eh66UdVi6g-29" vertex="1">
          <mxGeometry y="26" width="160" height="20" as="geometry" />
        </mxCell>
        <mxCell id="c3xup34KW6eh66UdVi6g-31" value="" style="line;strokeWidth=1;fillColor=none;align=left;verticalAlign=middle;spacingTop=-1;spacingLeft=3;spacingRight=3;rotatable=0;labelPosition=right;points=[];portConstraint=eastwest;fontSize=16;strokeColor=#006658;fontColor=#5C5C5C;rounded=0;" parent="c3xup34KW6eh66UdVi6g-29" vertex="1">
          <mxGeometry y="46" width="160" height="8" as="geometry" />
        </mxCell>
        <mxCell id="c3xup34KW6eh66UdVi6g-32" value="+ method(type): type" style="text;strokeColor=none;fillColor=none;align=left;verticalAlign=top;spacingLeft=4;spacingRight=4;overflow=hidden;rotatable=0;points=[[0,0.5],[1,0.5]];portConstraint=eastwest;fontSize=16;fontColor=#5C5C5C;rounded=0;" parent="c3xup34KW6eh66UdVi6g-29" vertex="1">
          <mxGeometry y="54" width="160" height="26" as="geometry" />
        </mxCell>
        <mxCell id="c3xup34KW6eh66UdVi6g-33" value="LoggingService" style="swimlane;fontStyle=1;align=center;verticalAlign=top;childLayout=stackLayout;horizontal=1;startSize=26;horizontalStack=0;resizeParent=1;resizeParentMax=0;resizeLast=0;collapsible=1;marginBottom=0;fontSize=16;fillColor=#21C0A5;strokeColor=#006658;fontColor=#5C5C5C;rounded=0;" parent="1" vertex="1">
          <mxGeometry x="-31" y="641" width="160" height="78" as="geometry" />
        </mxCell>
        <mxCell id="c3xup34KW6eh66UdVi6g-34" value="+ field: type" style="text;strokeColor=none;fillColor=none;align=left;verticalAlign=top;spacingLeft=4;spacingRight=4;overflow=hidden;rotatable=0;points=[[0,0.5],[1,0.5]];portConstraint=eastwest;fontSize=16;fontColor=#5C5C5C;rounded=0;" parent="c3xup34KW6eh66UdVi6g-33" vertex="1">
          <mxGeometry y="26" width="160" height="18" as="geometry" />
        </mxCell>
        <mxCell id="c3xup34KW6eh66UdVi6g-35" value="" style="line;strokeWidth=1;fillColor=none;align=left;verticalAlign=middle;spacingTop=-1;spacingLeft=3;spacingRight=3;rotatable=0;labelPosition=right;points=[];portConstraint=eastwest;fontSize=16;strokeColor=#006658;fontColor=#5C5C5C;rounded=0;" parent="c3xup34KW6eh66UdVi6g-33" vertex="1">
          <mxGeometry y="44" width="160" height="8" as="geometry" />
        </mxCell>
        <mxCell id="c3xup34KW6eh66UdVi6g-36" value="+ method(type): type" style="text;strokeColor=none;fillColor=none;align=left;verticalAlign=top;spacingLeft=4;spacingRight=4;overflow=hidden;rotatable=0;points=[[0,0.5],[1,0.5]];portConstraint=eastwest;fontSize=16;fontColor=#5C5C5C;rounded=0;" parent="c3xup34KW6eh66UdVi6g-33" vertex="1">
          <mxGeometry y="52" width="160" height="26" as="geometry" />
        </mxCell>
        <mxCell id="c3xup34KW6eh66UdVi6g-40" value="DefaultClient" style="swimlane;fontStyle=1;align=center;verticalAlign=top;childLayout=stackLayout;horizontal=1;startSize=26;horizontalStack=0;resizeParent=1;resizeParentMax=0;resizeLast=0;collapsible=1;marginBottom=0;fontSize=16;fillColor=#21C0A5;strokeColor=#006658;fontColor=#5C5C5C;rounded=0;" parent="1" vertex="1">
          <mxGeometry x="348" y="377" width="160" height="86" as="geometry" />
        </mxCell>
        <mxCell id="c3xup34KW6eh66UdVi6g-41" value="+ field: type" style="text;strokeColor=none;fillColor=none;align=left;verticalAlign=top;spacingLeft=4;spacingRight=4;overflow=hidden;rotatable=0;points=[[0,0.5],[1,0.5]];portConstraint=eastwest;fontSize=16;fontColor=#5C5C5C;rounded=0;" parent="c3xup34KW6eh66UdVi6g-40" vertex="1">
          <mxGeometry y="26" width="160" height="26" as="geometry" />
        </mxCell>
        <mxCell id="c3xup34KW6eh66UdVi6g-42" value="" style="line;strokeWidth=1;fillColor=none;align=left;verticalAlign=middle;spacingTop=-1;spacingLeft=3;spacingRight=3;rotatable=0;labelPosition=right;points=[];portConstraint=eastwest;fontSize=16;strokeColor=#006658;fontColor=#5C5C5C;rounded=0;" parent="c3xup34KW6eh66UdVi6g-40" vertex="1">
          <mxGeometry y="52" width="160" height="8" as="geometry" />
        </mxCell>
        <mxCell id="c3xup34KW6eh66UdVi6g-43" value="+ method(type): type" style="text;strokeColor=none;fillColor=none;align=left;verticalAlign=top;spacingLeft=4;spacingRight=4;overflow=hidden;rotatable=0;points=[[0,0.5],[1,0.5]];portConstraint=eastwest;fontSize=16;fontColor=#5C5C5C;rounded=0;" parent="c3xup34KW6eh66UdVi6g-40" vertex="1">
          <mxGeometry y="60" width="160" height="26" as="geometry" />
        </mxCell>
        <mxCell id="cE-XZR6qFVG_7nGPDlGH-1" value="" style="endArrow=classic;html=1;rounded=0;exitX=0;exitY=0;exitDx=0;exitDy=0;entryX=1;entryY=0;entryDx=0;entryDy=0;" parent="1" source="c3xup34KW6eh66UdVi6g-40" target="c3xup34KW6eh66UdVi6g-21" edge="1">
          <mxGeometry width="50" height="50" relative="1" as="geometry">
            <mxPoint x="241" y="395" as="sourcePoint" />
            <mxPoint x="337" y="235" as="targetPoint" />
          </mxGeometry>
        </mxCell>
        <mxCell id="cE-XZR6qFVG_7nGPDlGH-4" value="Agent" style="swimlane;fontStyle=1;align=center;verticalAlign=top;childLayout=stackLayout;horizontal=1;startSize=26;horizontalStack=0;resizeParent=1;resizeParentMax=0;resizeLast=0;collapsible=1;marginBottom=0;fontSize=16;fillColor=#21C0A5;strokeColor=#006658;fontColor=#5C5C5C;rounded=0;" parent="1" vertex="1">
          <mxGeometry x="324" y="-27" width="160" height="86" as="geometry" />
        </mxCell>
        <mxCell id="cE-XZR6qFVG_7nGPDlGH-5" value="+ field: type" style="text;strokeColor=none;fillColor=none;align=left;verticalAlign=top;spacingLeft=4;spacingRight=4;overflow=hidden;rotatable=0;points=[[0,0.5],[1,0.5]];portConstraint=eastwest;fontSize=16;fontColor=#5C5C5C;rounded=0;" parent="cE-XZR6qFVG_7nGPDlGH-4" vertex="1">
          <mxGeometry y="26" width="160" height="26" as="geometry" />
        </mxCell>
        <mxCell id="cE-XZR6qFVG_7nGPDlGH-6" value="" style="line;strokeWidth=1;fillColor=none;align=left;verticalAlign=middle;spacingTop=-1;spacingLeft=3;spacingRight=3;rotatable=0;labelPosition=right;points=[];portConstraint=eastwest;fontSize=16;strokeColor=#006658;fontColor=#5C5C5C;rounded=0;" parent="cE-XZR6qFVG_7nGPDlGH-4" vertex="1">
          <mxGeometry y="52" width="160" height="8" as="geometry" />
        </mxCell>
        <mxCell id="cE-XZR6qFVG_7nGPDlGH-7" value="+ method(type): type" style="text;strokeColor=none;fillColor=none;align=left;verticalAlign=top;spacingLeft=4;spacingRight=4;overflow=hidden;rotatable=0;points=[[0,0.5],[1,0.5]];portConstraint=eastwest;fontSize=16;fontColor=#5C5C5C;rounded=0;" parent="cE-XZR6qFVG_7nGPDlGH-4" vertex="1">
          <mxGeometry y="60" width="160" height="26" as="geometry" />
        </mxCell>
        <mxCell id="cE-XZR6qFVG_7nGPDlGH-8" value="Adapter" style="swimlane;fontStyle=1;align=center;verticalAlign=top;childLayout=stackLayout;horizontal=1;startSize=26;horizontalStack=0;resizeParent=1;resizeParentMax=0;resizeLast=0;collapsible=1;marginBottom=0;fontSize=16;fillColor=#21C0A5;strokeColor=#006658;fontColor=#5C5C5C;rounded=0;" parent="1" vertex="1">
          <mxGeometry x="125" y="-27" width="160" height="86" as="geometry" />
        </mxCell>
        <mxCell id="cE-XZR6qFVG_7nGPDlGH-9" value="+ field: type" style="text;strokeColor=none;fillColor=none;align=left;verticalAlign=top;spacingLeft=4;spacingRight=4;overflow=hidden;rotatable=0;points=[[0,0.5],[1,0.5]];portConstraint=eastwest;fontSize=16;fontColor=#5C5C5C;rounded=0;" parent="cE-XZR6qFVG_7nGPDlGH-8" vertex="1">
          <mxGeometry y="26" width="160" height="26" as="geometry" />
        </mxCell>
        <mxCell id="cE-XZR6qFVG_7nGPDlGH-10" value="" style="line;strokeWidth=1;fillColor=none;align=left;verticalAlign=middle;spacingTop=-1;spacingLeft=3;spacingRight=3;rotatable=0;labelPosition=right;points=[];portConstraint=eastwest;fontSize=16;strokeColor=#006658;fontColor=#5C5C5C;rounded=0;" parent="cE-XZR6qFVG_7nGPDlGH-8" vertex="1">
          <mxGeometry y="52" width="160" height="8" as="geometry" />
        </mxCell>
        <mxCell id="cE-XZR6qFVG_7nGPDlGH-11" value="+ method(type): type" style="text;strokeColor=none;fillColor=none;align=left;verticalAlign=top;spacingLeft=4;spacingRight=4;overflow=hidden;rotatable=0;points=[[0,0.5],[1,0.5]];portConstraint=eastwest;fontSize=16;fontColor=#5C5C5C;rounded=0;" parent="cE-XZR6qFVG_7nGPDlGH-8" vertex="1">
          <mxGeometry y="60" width="160" height="26" as="geometry" />
        </mxCell>
        <mxCell id="cE-XZR6qFVG_7nGPDlGH-12" value="Device" style="swimlane;fontStyle=1;align=center;verticalAlign=top;childLayout=stackLayout;horizontal=1;startSize=26;horizontalStack=0;resizeParent=1;resizeParentMax=0;resizeLast=0;collapsible=1;marginBottom=0;fontSize=16;fillColor=#21C0A5;strokeColor=#006658;fontColor=#5C5C5C;rounded=0;" parent="1" vertex="1">
          <mxGeometry x="-74" y="-31" width="160" height="86" as="geometry" />
        </mxCell>
        <mxCell id="cE-XZR6qFVG_7nGPDlGH-13" value="+ field: type" style="text;strokeColor=none;fillColor=none;align=left;verticalAlign=top;spacingLeft=4;spacingRight=4;overflow=hidden;rotatable=0;points=[[0,0.5],[1,0.5]];portConstraint=eastwest;fontSize=16;fontColor=#5C5C5C;rounded=0;" parent="cE-XZR6qFVG_7nGPDlGH-12" vertex="1">
          <mxGeometry y="26" width="160" height="26" as="geometry" />
        </mxCell>
        <mxCell id="cE-XZR6qFVG_7nGPDlGH-14" value="" style="line;strokeWidth=1;fillColor=none;align=left;verticalAlign=middle;spacingTop=-1;spacingLeft=3;spacingRight=3;rotatable=0;labelPosition=right;points=[];portConstraint=eastwest;fontSize=16;strokeColor=#006658;fontColor=#5C5C5C;rounded=0;" parent="cE-XZR6qFVG_7nGPDlGH-12" vertex="1">
          <mxGeometry y="52" width="160" height="8" as="geometry" />
        </mxCell>
        <mxCell id="cE-XZR6qFVG_7nGPDlGH-15" value="+ method(type): type" style="text;strokeColor=none;fillColor=none;align=left;verticalAlign=top;spacingLeft=4;spacingRight=4;overflow=hidden;rotatable=0;points=[[0,0.5],[1,0.5]];portConstraint=eastwest;fontSize=16;fontColor=#5C5C5C;rounded=0;" parent="cE-XZR6qFVG_7nGPDlGH-12" vertex="1">
          <mxGeometry y="60" width="160" height="26" as="geometry" />
        </mxCell>
        <mxCell id="cE-XZR6qFVG_7nGPDlGH-25" value="Class" style="swimlane;fontStyle=1;align=center;verticalAlign=top;childLayout=stackLayout;horizontal=1;startSize=26;horizontalStack=0;resizeParent=1;resizeParentMax=0;resizeLast=0;collapsible=1;marginBottom=0;fontSize=16;fillColor=#21C0A5;strokeColor=#006658;fontColor=#5C5C5C;rounded=0;" parent="1" vertex="1">
          <mxGeometry x="729" y="-191" width="160" height="86" as="geometry" />
        </mxCell>
        <mxCell id="cE-XZR6qFVG_7nGPDlGH-26" value="+ field: type" style="text;strokeColor=none;fillColor=none;align=left;verticalAlign=top;spacingLeft=4;spacingRight=4;overflow=hidden;rotatable=0;points=[[0,0.5],[1,0.5]];portConstraint=eastwest;fontSize=16;fontColor=#5C5C5C;rounded=0;" parent="cE-XZR6qFVG_7nGPDlGH-25" vertex="1">
          <mxGeometry y="26" width="160" height="26" as="geometry" />
        </mxCell>
        <mxCell id="cE-XZR6qFVG_7nGPDlGH-27" value="" style="line;strokeWidth=1;fillColor=none;align=left;verticalAlign=middle;spacingTop=-1;spacingLeft=3;spacingRight=3;rotatable=0;labelPosition=right;points=[];portConstraint=eastwest;fontSize=16;strokeColor=#006658;fontColor=#5C5C5C;rounded=0;" parent="cE-XZR6qFVG_7nGPDlGH-25" vertex="1">
          <mxGeometry y="52" width="160" height="8" as="geometry" />
        </mxCell>
        <mxCell id="cE-XZR6qFVG_7nGPDlGH-28" value="+ method(type): type" style="text;strokeColor=none;fillColor=none;align=left;verticalAlign=top;spacingLeft=4;spacingRight=4;overflow=hidden;rotatable=0;points=[[0,0.5],[1,0.5]];portConstraint=eastwest;fontSize=16;fontColor=#5C5C5C;rounded=0;" parent="cE-XZR6qFVG_7nGPDlGH-25" vertex="1">
          <mxGeometry y="60" width="160" height="26" as="geometry" />
        </mxCell>
        <mxCell id="cE-XZR6qFVG_7nGPDlGH-29" value="Database (IgnitionHIST)" style="rounded=0;whiteSpace=wrap;html=1;align=left;verticalAlign=top;" parent="1" vertex="1">
          <mxGeometry x="-179" y="-352" width="702" height="226" as="geometry" />
        </mxCell>
        <mxCell id="cE-XZR6qFVG_7nGPDlGH-30" value="Agent" style="swimlane;fontStyle=1;align=center;verticalAlign=top;childLayout=stackLayout;horizontal=1;startSize=26;horizontalStack=0;resizeParent=1;resizeParentMax=0;resizeLast=0;collapsible=1;marginBottom=0;fontSize=16;fillColor=#21C0A5;strokeColor=#006658;fontColor=#5C5C5C;rounded=0;" parent="1" vertex="1">
          <mxGeometry x="-86" y="-291" width="160" height="86" as="geometry" />
        </mxCell>
        <mxCell id="cE-XZR6qFVG_7nGPDlGH-31" value="+ field: type" style="text;strokeColor=none;fillColor=none;align=left;verticalAlign=top;spacingLeft=4;spacingRight=4;overflow=hidden;rotatable=0;points=[[0,0.5],[1,0.5]];portConstraint=eastwest;fontSize=16;fontColor=#5C5C5C;rounded=0;" parent="cE-XZR6qFVG_7nGPDlGH-30" vertex="1">
          <mxGeometry y="26" width="160" height="26" as="geometry" />
        </mxCell>
        <mxCell id="cE-XZR6qFVG_7nGPDlGH-32" value="" style="line;strokeWidth=1;fillColor=none;align=left;verticalAlign=middle;spacingTop=-1;spacingLeft=3;spacingRight=3;rotatable=0;labelPosition=right;points=[];portConstraint=eastwest;fontSize=16;strokeColor=#006658;fontColor=#5C5C5C;rounded=0;" parent="cE-XZR6qFVG_7nGPDlGH-30" vertex="1">
          <mxGeometry y="52" width="160" height="8" as="geometry" />
        </mxCell>
        <mxCell id="cE-XZR6qFVG_7nGPDlGH-33" value="+ method(type): type" style="text;strokeColor=none;fillColor=none;align=left;verticalAlign=top;spacingLeft=4;spacingRight=4;overflow=hidden;rotatable=0;points=[[0,0.5],[1,0.5]];portConstraint=eastwest;fontSize=16;fontColor=#5C5C5C;rounded=0;" parent="cE-XZR6qFVG_7nGPDlGH-30" vertex="1">
          <mxGeometry y="60" width="160" height="26" as="geometry" />
        </mxCell>
        <mxCell id="cE-XZR6qFVG_7nGPDlGH-34" value="Agent" style="swimlane;fontStyle=1;align=center;verticalAlign=top;childLayout=stackLayout;horizontal=1;startSize=26;horizontalStack=0;resizeParent=1;resizeParentMax=0;resizeLast=0;collapsible=1;marginBottom=0;fontSize=16;fillColor=#21C0A5;strokeColor=#006658;fontColor=#5C5C5C;rounded=0;" parent="1" vertex="1">
          <mxGeometry x="138" y="-282" width="160" height="86" as="geometry" />
        </mxCell>
        <mxCell id="cE-XZR6qFVG_7nGPDlGH-35" value="+ field: type" style="text;strokeColor=none;fillColor=none;align=left;verticalAlign=top;spacingLeft=4;spacingRight=4;overflow=hidden;rotatable=0;points=[[0,0.5],[1,0.5]];portConstraint=eastwest;fontSize=16;fontColor=#5C5C5C;rounded=0;" parent="cE-XZR6qFVG_7nGPDlGH-34" vertex="1">
          <mxGeometry y="26" width="160" height="26" as="geometry" />
        </mxCell>
        <mxCell id="cE-XZR6qFVG_7nGPDlGH-36" value="" style="line;strokeWidth=1;fillColor=none;align=left;verticalAlign=middle;spacingTop=-1;spacingLeft=3;spacingRight=3;rotatable=0;labelPosition=right;points=[];portConstraint=eastwest;fontSize=16;strokeColor=#006658;fontColor=#5C5C5C;rounded=0;" parent="cE-XZR6qFVG_7nGPDlGH-34" vertex="1">
          <mxGeometry y="52" width="160" height="8" as="geometry" />
        </mxCell>
        <mxCell id="cE-XZR6qFVG_7nGPDlGH-37" value="+ method(type): type" style="text;strokeColor=none;fillColor=none;align=left;verticalAlign=top;spacingLeft=4;spacingRight=4;overflow=hidden;rotatable=0;points=[[0,0.5],[1,0.5]];portConstraint=eastwest;fontSize=16;fontColor=#5C5C5C;rounded=0;" parent="cE-XZR6qFVG_7nGPDlGH-34" vertex="1">
          <mxGeometry y="60" width="160" height="26" as="geometry" />
        </mxCell>
        <mxCell id="ojhhG3WkHg60o16cQQcv-7" value="Perspective" style="rounded=0;whiteSpace=wrap;html=1;align=left;verticalAlign=top;" parent="1" vertex="1">
          <mxGeometry x="-90" y="878" width="574" height="167" as="geometry" />
        </mxCell>
      </root>
    </mxGraphModel>
  </diagram>
</mxfile>
